<mxfile host="app.diagrams.net" modified="2024-07-16T09:37:59.638Z" agent="Mozilla/5.0 (Windows NT 10.0; Win64; x64) AppleWebKit/537.36 (KHTML, like Gecko) Chrome/126.0.0.0 Safari/537.36 Edg/126.0.0.0" etag="Lyq4w3Sjqi3Gn4X1CuzI" version="24.6.4" type="device">
  <diagram name="Pagina-1" id="oV1SX0zPOyyUclpaV-p_">
    <mxGraphModel dx="1155" dy="633" grid="1" gridSize="10" guides="1" tooltips="1" connect="1" arrows="1" fold="1" page="1" pageScale="1" pageWidth="827" pageHeight="1169" math="0" shadow="0">
      <root>
        <mxCell id="0" />
        <mxCell id="1" parent="0" />
        <mxCell id="LYcKrU_p4_sUU8tXamLQ-7" style="edgeStyle=orthogonalEdgeStyle;rounded=0;orthogonalLoop=1;jettySize=auto;html=1;strokeWidth=3;" edge="1" parent="1" source="LYcKrU_p4_sUU8tXamLQ-3" target="LYcKrU_p4_sUU8tXamLQ-4">
          <mxGeometry relative="1" as="geometry" />
        </mxCell>
        <mxCell id="LYcKrU_p4_sUU8tXamLQ-3" value="&lt;div style=&quot;&quot;&gt;&lt;span style=&quot;background-color: initial;&quot;&gt;&lt;font style=&quot;font-size: 14px;&quot;&gt;Find last written module via # times rewritten&lt;/font&gt;&lt;/span&gt;&lt;/div&gt;" style="shape=parallelogram;perimeter=parallelogramPerimeter;whiteSpace=wrap;html=1;fixedSize=1;align=center;" vertex="1" parent="1">
          <mxGeometry x="80" y="50" width="360" height="60" as="geometry" />
        </mxCell>
        <mxCell id="LYcKrU_p4_sUU8tXamLQ-8" style="edgeStyle=orthogonalEdgeStyle;rounded=0;orthogonalLoop=1;jettySize=auto;html=1;exitX=0.5;exitY=1;exitDx=0;exitDy=0;entryX=0.5;entryY=0;entryDx=0;entryDy=0;strokeWidth=3;" edge="1" parent="1" source="LYcKrU_p4_sUU8tXamLQ-4" target="LYcKrU_p4_sUU8tXamLQ-5">
          <mxGeometry relative="1" as="geometry" />
        </mxCell>
        <mxCell id="LYcKrU_p4_sUU8tXamLQ-4" value="Compute checksum CHK on module data" style="shape=parallelogram;perimeter=parallelogramPerimeter;whiteSpace=wrap;html=1;fixedSize=1;" vertex="1" parent="1">
          <mxGeometry x="80" y="180" width="360" height="60" as="geometry" />
        </mxCell>
        <mxCell id="LYcKrU_p4_sUU8tXamLQ-10" style="edgeStyle=orthogonalEdgeStyle;rounded=0;orthogonalLoop=1;jettySize=auto;html=1;exitX=0;exitY=0.5;exitDx=0;exitDy=0;entryX=0.5;entryY=0;entryDx=0;entryDy=0;strokeWidth=3;" edge="1" parent="1" source="LYcKrU_p4_sUU8tXamLQ-5" target="LYcKrU_p4_sUU8tXamLQ-9">
          <mxGeometry relative="1" as="geometry" />
        </mxCell>
        <mxCell id="LYcKrU_p4_sUU8tXamLQ-11" value="&lt;font style=&quot;font-size: 16px;&quot;&gt;YES&lt;/font&gt;" style="edgeLabel;html=1;align=center;verticalAlign=middle;resizable=0;points=[];" vertex="1" connectable="0" parent="LYcKrU_p4_sUU8tXamLQ-10">
          <mxGeometry x="-0.8103" y="1" relative="1" as="geometry">
            <mxPoint y="-1" as="offset" />
          </mxGeometry>
        </mxCell>
        <mxCell id="LYcKrU_p4_sUU8tXamLQ-5" value="&lt;div style=&quot;font-size: 15px;&quot;&gt;&lt;font style=&quot;font-size: 15px;&quot;&gt;computed CHK&amp;nbsp;&lt;/font&gt;&lt;/div&gt;&lt;div style=&quot;font-size: 15px;&quot;&gt;&lt;font style=&quot;font-size: 15px;&quot;&gt;==&amp;nbsp;&lt;/font&gt;&lt;/div&gt;&lt;div style=&quot;font-size: 15px;&quot;&gt;&lt;font style=&quot;font-size: 15px;&quot;&gt;stored CHK?&amp;nbsp;&lt;/font&gt;&lt;/div&gt;" style="rhombus;whiteSpace=wrap;html=1;" vertex="1" parent="1">
          <mxGeometry x="175" y="320" width="170" height="170" as="geometry" />
        </mxCell>
        <mxCell id="LYcKrU_p4_sUU8tXamLQ-9" value="Pick selected module" style="rounded=1;whiteSpace=wrap;html=1;" vertex="1" parent="1">
          <mxGeometry x="40" y="650" width="180" height="60" as="geometry" />
        </mxCell>
      </root>
    </mxGraphModel>
  </diagram>
</mxfile>
